<svg width="280" height="280" viewBox="0 0 280 280" fill="none" xmlns="http://www.w3.org/2000/svg">
<path d="M91.02 220.57C86.6 220.57 83.285 220.4 81.075 220.06C78.865 219.72 76.74 219.295 74.7 218.785C72.83 218.275 70.28 217.85 67.05 217.51C63.82 217.17 58.89 217 52.26 217L46.14 169.06H49.455C52.175 185.04 57.275 197.11 64.755 205.27C72.235 213.26 80.395 217.255 89.235 217.255C97.905 217.255 104.45 215.47 108.87 211.9C113.46 208.33 115.755 203.485 115.755 197.365C115.755 193.455 114.735 190.055 112.695 187.165C110.825 184.105 107.51 181.045 102.75 177.985C97.99 174.755 91.53 170.93 83.37 166.51L75.975 162.43C66.625 157.16 59.655 151.04 55.065 144.07C50.645 136.93 48.435 129.28 48.435 121.12C48.435 109.56 52.6 100.465 60.93 93.835C69.43 87.205 80.735 83.89 94.845 83.89C98.415 83.89 101.305 84.06 103.515 84.4C105.725 84.74 107.85 85.165 109.89 85.675C111.93 86.185 114.48 86.61 117.54 86.95C120.6 87.29 124.68 87.46 129.78 87.46L133.35 128.515H130.29C129.27 120.525 126.975 113.47 123.405 107.35C120.005 101.06 115.925 96.215 111.165 92.815C106.405 89.245 101.56 87.46 96.63 87.46C90.17 87.46 84.985 89.16 81.075 92.56C77.335 95.96 75.465 100.72 75.465 106.84C75.465 111.43 76.91 115.68 79.8 119.59C82.86 123.33 88.64 127.41 97.14 131.83L104.79 135.655C116.69 141.775 125.36 148.15 130.8 154.78C136.24 161.41 138.96 169.91 138.96 180.28C138.96 206.8 122.98 220.23 91.02 220.57ZM196.554 220.57C187.714 220.57 180.489 217.765 174.879 212.155C169.269 206.545 166.464 199.235 166.464 190.225V92.05H144.789V88.735C156.519 87.885 166.974 84.145 176.154 77.515C185.504 70.885 193.154 61.96 199.104 50.74H203.184V87.46H237.099L234.549 92.05H203.184V184.615C203.184 198.215 207.774 205.015 216.954 205.015C220.014 205.015 223.499 204.08 227.409 202.21C231.489 200.34 235.314 197.875 238.884 194.815V197.365C233.274 204.505 226.644 210.2 218.994 214.45C211.344 218.53 203.864 220.57 196.554 220.57Z" fill="#151929"/>
</svg>
