<?xml version="1.0" encoding="UTF-8" standalone="no"?>
<!DOCTYPE svg PUBLIC "-//W3C//DTD SVG 1.1//EN" "http://www.w3.org/Graphics/SVG/1.1/DTD/svg11.dtd">
<svg width="100%" height="100%" viewBox="0 0 1385 1068" version="1.1" xmlns="http://www.w3.org/2000/svg" xmlns:xlink="http://www.w3.org/1999/xlink" xml:space="preserve" xmlns:serif="http://www.serif.com/" style="fill-rule:evenodd;clip-rule:evenodd;stroke-linejoin:round;stroke-miterlimit:2;">
    <g transform="matrix(1,0,0,1,-245.477,-4.59261)">
        <g transform="matrix(3.6526,0,0,3.6526,-1631.96,-1557.31)">
            <path d="M840.361,492.902L857,482.5L866,458L852,440L879,454L880.175,482.5L857,514L840.361,492.902Z"/>
        </g>
        <g transform="matrix(3.6526,0,0,3.6526,-1631.96,-1557.31)">
            <path d="M714,484L757,454L821,469L860.5,500L893,567L876,586L825,577L806,607L806,647L815.514,704.874L821,720L774.63,720L779.049,709.457L774.63,657.835L766,672L732,647L674,630L609,640C576.735,649.106 556.479,671.663 549.827,709.457L552,720L514,720L514,619L561,561L640,533L664,491L714,484Z"/>
        </g>
        <g transform="matrix(3.6526,0,0,3.6526,-1631.96,-1557.31)">
            <path d="M643,491L624,472.5L616.5,472.5L526,540L541.634,587.61L562.41,562.48L541,540L616.5,479.131L643,491Z"/>
        </g>
        <g transform="matrix(3.6526,0,0,3.6526,-1631.96,-1557.31)">
            <path d="M674.65,628.966L676,666L703.5,709.043L699.5,720L743,720L729,666L734.718,646.026"/>
        </g>
        <g transform="matrix(3.6526,0,0,3.6526,-1631.96,-1557.31)">
            <path d="M608.652,639.2L619,663L609,683L626.432,710.226L626.432,720L660.69,720L651,683L669,653L660.245,630.923L608.652,639.2Z"/>
        </g>
        <g transform="matrix(3.6526,0,0,3.6526,-3856.39,-1557.31)">
            <path d="M1482.44,578.525L1445.74,568.607L1462,562.69L1437.65,563.837L1429,568.607L1404.34,607.209L1391.41,583.648L1395.87,609.832L1391.41,621.019L1372,652L1362,646L1344.79,589.459L1344.79,625.246L1333.73,636.083L1311.95,663.939L1319.5,698.246L1297.48,663.939L1294.49,602.459L1305.22,578.525L1286.74,602.459L1239.4,613L1255.26,573.746L1229.14,607.209L1222.98,613C1165.01,634.038 1158.29,654.671 1145.96,682.28L1143.79,674.364L1130.48,698.246L1132.79,625.246L1188.79,597.934L1138.93,613L1176.33,573.746L1248.59,543.016L1263.9,548.836L1258,534L1278,500L1319.5,495L1299.84,519.262L1305.22,543.016L1305.22,521.926L1343,482.82L1367.59,462.443L1415.88,473.259L1431.69,450.537L1429.93,438.352L1437.65,450.537L1424.58,468.919L1429,476.197L1464,505L1481.36,540L1470.39,534L1488.99,555.396L1493.97,565.426L1482.44,578.525Z" style="fill:white;"/>
        </g>
        <g transform="matrix(-3.16325,1.8263,-1.8263,-3.16325,7006.25,-655.419)">
            <path d="M1449.73,511.046L1461,522.118L1456.37,536.633L1449.73,511.046Z"/>
        </g>
        <g transform="matrix(3.6526,0,0,3.6526,-3857.5,-1557.89)">
            <path d="M1427.19,427.774L1441.77,449.911L1430.33,469.215L1432.12,497.857L1444.71,510.551L1443.34,518.63L1441.77,514.328L1427.19,502.263L1424.88,469.215L1437.17,451.17L1430.33,440.172L1432.12,451.17L1414.04,477.083L1412.19,497.857L1420.1,516.563L1424.88,523.612L1414.04,523.612L1403.05,497.857L1406.99,475.908L1427.19,448.681L1427.19,427.774Z"/>
        </g>
    </g>
</svg>
