<svg width="813" height="147" viewBox="0 0 813 147" fill="none" xmlns="http://www.w3.org/2000/svg">
<path d="M32.128 146.548C28.9733 146.548 26.6073 146.427 25.03 146.184C23.4527 145.941 21.936 145.638 20.48 145.274C19.1453 144.91 17.3253 144.607 15.02 144.364C12.7147 144.121 9.196 144 4.464 144L0.0960002 109.784H2.462C4.40333 121.189 8.04333 129.804 13.382 135.628C18.7207 141.331 24.5447 144.182 30.854 144.182C37.042 144.182 41.7133 142.908 44.868 140.36C48.144 137.812 49.782 134.354 49.782 129.986C49.782 127.195 49.054 124.769 47.598 122.706C46.2633 120.522 43.8973 118.338 40.5 116.154C37.1027 113.849 32.492 111.119 26.668 107.964L21.39 105.052C14.7167 101.291 9.742 96.9227 6.466 91.948C3.31133 86.852 1.734 81.392 1.734 75.568C1.734 67.3173 4.70667 60.826 10.652 56.094C16.7187 51.362 24.7873 48.996 34.858 48.996C37.406 48.996 39.4687 49.1173 41.046 49.36C42.6233 49.6027 44.14 49.906 45.596 50.27C47.052 50.634 48.872 50.9373 51.056 51.18C53.24 51.4227 56.152 51.544 59.792 51.544L62.34 80.846H60.156C59.428 75.1433 57.79 70.108 55.242 65.74C52.8153 61.2507 49.9033 57.7927 46.506 55.366C43.1087 52.818 39.6507 51.544 36.132 51.544C31.5213 51.544 27.8207 52.7573 25.03 55.184C22.3607 57.6107 21.026 61.008 21.026 65.376C21.026 68.652 22.0573 71.6853 24.12 74.476C26.304 77.1453 30.4293 80.0573 36.496 83.212L41.956 85.942C50.4493 90.31 56.6373 94.86 60.52 99.592C64.4027 104.324 66.344 110.391 66.344 117.792C66.344 136.72 54.9387 146.305 32.128 146.548ZM107.45 146.548C101.141 146.548 95.9844 144.546 91.9804 140.542C87.9764 136.538 85.9744 131.321 85.9744 124.89V54.82H70.5044V52.454C78.8764 51.8473 86.3384 49.178 92.8904 44.446C99.5637 39.714 105.024 33.344 109.27 25.336H112.182V51.544H136.388L134.568 54.82H112.182V120.886C112.182 130.593 115.458 135.446 122.01 135.446C124.194 135.446 126.682 134.779 129.472 133.444C132.384 132.109 135.114 130.35 137.662 128.166V129.986C133.658 135.082 128.926 139.147 123.466 142.18C118.006 145.092 112.668 146.548 107.45 146.548ZM189.677 146.548C179.728 146.548 170.992 144.546 163.469 140.542C156.068 136.538 150.305 130.896 146.179 123.616C142.054 116.336 139.991 107.721 139.991 97.772C139.991 87.8227 142.054 79.208 146.179 71.928C150.305 64.648 156.068 59.006 163.469 55.002C170.992 50.998 179.728 48.996 189.677 48.996C199.627 48.996 208.302 50.998 215.703 55.002C223.105 59.006 228.868 64.648 232.993 71.928C237.119 79.208 239.181 87.8227 239.181 97.772C239.181 107.721 237.119 116.336 232.993 123.616C228.868 130.896 223.105 136.538 215.703 140.542C208.302 144.546 199.627 146.548 189.677 146.548ZM189.495 144.182C193.742 144.182 197.382 142.059 200.415 137.812C203.449 133.565 205.815 127.923 207.513 120.886C209.212 113.727 210.061 105.962 210.061 97.59C210.061 88.49 209.151 80.482 207.331 73.566C205.633 66.5287 203.206 61.0687 200.051 57.186C197.018 53.182 193.56 51.18 189.677 51.18C185.552 51.18 181.912 53.3033 178.757 57.55C175.724 61.7967 173.358 67.4387 171.659 74.476C169.961 81.5133 169.111 89.218 169.111 97.59C169.111 106.811 170.021 114.941 171.841 121.978C173.661 129.015 176.088 134.475 179.121 138.358C182.276 142.241 185.734 144.182 189.495 144.182ZM294.629 146.548C286.378 146.548 279.038 144.546 272.607 140.542C266.176 136.417 261.141 130.714 257.501 123.434C253.982 116.154 252.223 107.843 252.223 98.5C252.223 88.7933 254.225 80.2393 258.229 72.838C262.233 65.3153 267.693 59.4913 274.609 55.366C281.646 51.1193 289.533 48.996 298.269 48.996C308.461 48.996 316.894 51.7867 323.567 57.368C330.362 62.828 334.426 70.29 335.761 79.754L313.921 91.948C313.921 79.572 312.344 69.744 309.189 62.464C306.034 55.3053 301.606 51.726 295.903 51.726C292.02 51.726 288.623 53.3033 285.711 56.458C282.92 59.6127 280.736 63.8593 279.159 69.198C277.703 74.5367 276.975 80.482 276.975 87.034C276.975 95.406 278.249 102.807 280.797 109.238C283.345 115.547 286.924 120.522 291.535 124.162C296.146 127.681 301.606 129.44 307.915 129.44C313.739 129.44 319.26 127.984 324.477 125.072C329.816 122.16 334.184 118.217 337.581 113.242L339.401 113.788C337.338 120.34 334.062 126.103 329.573 131.078C325.084 135.931 319.806 139.753 313.739 142.544C307.794 145.213 301.424 146.548 294.629 146.548ZM341.035 144V142.18H341.217C345.585 142.18 349.103 140.845 351.773 138.176C354.442 135.507 355.777 131.988 355.777 127.62V23.88C355.777 19.512 354.381 15.9933 351.591 13.324C348.921 10.6547 345.403 9.32 341.035 9.32V7.49999H359.599C365.787 7.49999 370.519 6.83266 373.795 5.49799C376.828 4.16333 378.951 2.52533 380.165 0.583991H381.985V96.316L412.925 70.29C417.899 66.1647 420.872 62.464 421.843 59.188C422.571 56.1547 421.782 54.3953 419.477 53.91L417.111 53.364V51.544H444.229V53.364L442.409 53.728C439.497 54.2133 436.463 55.4267 433.309 57.368C430.275 59.3093 425.847 62.7067 420.023 67.56L407.465 78.116L443.683 133.808C445.988 136.841 447.99 139.025 449.689 140.36C451.387 141.573 453.268 142.18 455.331 142.18V144H407.283V142.18C410.316 142.18 412.318 141.937 413.289 141.452C414.381 141.088 414.927 140.299 414.927 139.086C414.927 137.994 414.502 136.599 413.653 134.9C413.167 133.929 412.561 132.837 411.833 131.624C411.226 130.289 410.437 128.833 409.467 127.256L388.719 93.95L381.985 99.774V127.62C381.985 131.988 383.319 135.507 385.989 138.176C388.658 140.845 392.177 142.18 396.545 142.18H396.727V144H341.035ZM453.296 144V142.18H453.478C457.846 142.18 461.365 140.845 464.034 138.176C466.703 135.507 468.038 131.988 468.038 127.62V67.924C468.038 63.3133 467.067 59.734 465.126 57.186C463.306 54.638 459.363 53.364 453.296 53.364V51.544H471.314C477.745 51.544 482.598 50.9373 485.874 49.724C489.15 48.3893 491.455 46.6907 492.79 44.628H493.7L493.882 74.476C495.459 70.836 497.461 67.014 499.888 63.01C502.436 59.006 505.591 55.6693 509.352 53C513.235 50.2093 517.845 48.814 523.184 48.814C525.004 48.814 526.945 48.996 529.008 49.36C531.071 49.724 533.255 50.3913 535.56 51.362L528.462 72.656C524.094 70.2293 520.272 68.5307 516.996 67.56C513.841 66.5893 511.051 66.104 508.624 66.104C504.499 66.104 501.405 67.378 499.342 69.926C497.401 72.474 495.702 75.5073 494.246 79.026V127.62C494.246 131.988 495.581 135.507 498.25 138.176C500.919 140.845 504.438 142.18 508.806 142.18H508.988V144H453.296ZM564.97 146.548C557.569 146.548 551.623 144.546 547.134 140.542C542.645 136.538 540.4 131.26 540.4 124.708C540.4 121.917 540.885 119.309 541.856 116.882C542.827 114.334 544.647 111.847 547.316 109.42C550.107 106.993 553.929 104.506 558.782 101.958C563.635 99.2887 570.066 96.498 578.074 93.586L595 87.398V73.748C595 66.832 593.908 61.372 591.724 57.368C589.54 53.2427 586.507 51.18 582.624 51.18C578.013 51.3013 574.07 54.3347 570.794 60.28C567.639 66.2253 565.516 74.476 564.424 85.032L544.768 73.748C546.831 68.7733 549.985 64.4053 554.232 60.644C558.479 56.8827 563.332 53.9707 568.792 51.908C574.373 49.8453 580.197 48.814 586.264 48.814C596.577 48.814 604.949 51.726 611.38 57.55C617.932 63.2527 621.208 71.0787 621.208 81.028V124.89C621.208 131.927 623.574 135.446 628.306 135.446C631.097 135.446 633.827 133.929 636.496 130.896L637.952 132.17C634.797 136.417 630.975 139.875 626.486 142.544C621.997 145.213 617.629 146.548 613.382 146.548C608.771 146.548 604.767 144.971 601.37 141.816C598.094 138.661 596.031 134.475 595.182 129.258C589.237 135.325 584.019 139.753 579.53 142.544C575.162 145.213 570.309 146.548 564.97 146.548ZM578.62 135.264C581.289 135.264 583.837 134.597 586.264 133.262C588.812 131.927 591.663 129.743 594.818 126.71L595 89.764L587.72 92.494C581.532 94.7993 576.8 97.1653 573.524 99.592C570.248 101.897 567.943 104.506 566.608 107.418C565.395 110.33 564.788 113.667 564.788 117.428C564.788 122.645 566.062 126.953 568.61 130.35C571.279 133.626 574.616 135.264 578.62 135.264ZM638.137 144V142.18H638.319C642.687 142.18 646.205 140.845 648.875 138.176C651.544 135.507 652.879 131.988 652.879 127.62V67.924C652.879 63.3133 651.908 59.734 649.967 57.186C648.147 54.638 644.203 53.364 638.137 53.364V51.544H656.701C662.889 51.544 667.621 50.8767 670.897 49.542C673.93 48.2073 676.053 46.5693 677.267 44.628H679.087V127.62C679.087 131.988 680.421 135.507 683.091 138.176C685.76 140.845 689.279 142.18 693.647 142.18H693.829V144H638.137ZM665.801 33.162C661.433 33.162 657.793 31.7667 654.881 28.976C652.09 26.064 650.695 22.424 650.695 18.056C650.695 13.688 652.09 10.1087 654.881 7.31799C657.793 4.40599 661.433 2.94999 665.801 2.94999C670.047 2.94999 673.566 4.40599 676.357 7.31799C679.269 10.23 680.725 13.8093 680.725 18.056C680.725 22.3027 679.269 25.882 676.357 28.794C673.566 31.706 670.047 33.162 665.801 33.162ZM695.626 144V142.18H695.808C700.176 142.18 703.695 140.845 706.364 138.176C709.033 135.507 710.368 131.988 710.368 127.62V67.924C710.368 63.3133 709.397 59.734 707.456 57.186C705.636 54.638 701.693 53.364 695.626 53.364V51.544H713.644C719.832 51.544 724.564 50.8767 727.84 49.542C730.873 48.2073 732.997 46.5693 734.21 44.628H736.03L736.212 70.108C739.367 63.7987 744.159 58.7027 750.59 54.82C757.021 50.9373 763.815 48.996 770.974 48.996C779.103 48.996 785.595 51.6653 790.448 57.004C795.423 62.3427 797.91 69.38 797.91 78.116V127.62C797.91 131.988 799.245 135.507 801.914 138.176C804.583 140.845 808.102 142.18 812.47 142.18H812.652V144H757.142V142.18H757.324C761.692 142.18 765.211 140.845 767.88 138.176C770.549 135.507 771.884 131.988 771.884 127.62V76.296C771.884 70.2293 770.671 65.376 768.244 61.736C765.939 58.096 762.845 56.276 758.962 56.276C755.201 56.276 751.257 57.914 747.132 61.19C743.128 64.3447 739.609 68.652 736.576 74.112V127.62C736.576 131.988 737.911 135.507 740.58 138.176C743.249 140.845 746.768 142.18 751.136 142.18H751.318V144H695.626Z" fill="white"/>
</svg>
